<svg xmlns="http://www.w3.org/2000/svg" viewBox="0 0 511 511"><title>Element 1</title><circle cx="255.5" cy="255.5" r="255.5" style="fill:#2ba88e"/><path d="M219.64,418.31,95.71,294.37h0L56.53,255.19c0,.69,0,1.37,0,2.06,0,110.6,89.65,200.25,200.25,200.25.69,0,1.37,0,2.05,0l-39.16-39.16Z" style="fill:#fff"/><path d="M256.75,57C162.2,57,83,122.54,62,210.66L100.9,249.6a.35.35,0,0,0-.05-.08l.12.12.06.08L128.34,277l.09,0,.12.12-.09,0L157,305.67h0l116,116h0L303.34,452h0l.05.05.08-.08c88-21.06,153.5-100.25,153.5-194.75C457,146.65,367.35,57,256.75,57ZM103.43,202.13a68.86,68.86,0,0,1,1.37-9.92A165.54,165.54,0,0,1,127,154.94a68.14,68.14,0,1,1,48.9,119.63ZM313.72,412.42,202.94,301.64a100.15,100.15,0,0,0-16.35-194A165.29,165.29,0,1,1,313.72,412.42Z" style="fill:#fff"/></svg>